<svg width="67" height="16" viewBox="0 0 67 16" fill="none" xmlns="http://www.w3.org/2000/svg">
<rect width="16" height="16" rx="2" fill="#D9D9D9"/>
<rect x="17" width="16" height="16" rx="2" fill="#D9D9D9"/>
<rect x="34" width="16" height="16" rx="2" fill="#E2241A"/>
<path d="M12 4.5H5.5C4.94772 4.5 4.5 4.94772 4.5 5.5V8M12 11.5H5.5C4.94772 11.5 4.5 11.0523 4.5 10.5V8M4.5 8H9" stroke="#515151"/>
<path d="M29 11.5H22.5C21.9477 11.5 21.5 11.0523 21.5 10.5V5.5C21.5 4.94772 21.9477 4.5 22.5 4.5H29" stroke="#515151"/>
<path d="M38 12V8.5M38 8.5V5.5C38 4.94772 38.4477 4.5 39 4.5H44.5C45.0523 4.5 45.5 4.94772 45.5 5.5V7.5C45.5 8.05228 45.0523 8.5 44.5 8.5H44M38 8.5H42H44M44 8.5L44.7071 9.20711C44.8946 9.39464 45 9.649 45 9.91421V12" stroke="white"/>
<path d="M65.4375 0H52.5625C51.6996 0 51 0.699555 51 1.5625V14.4375C51 15.3004 51.6996 16 52.5625 16H65.4375C66.3004 16 67 15.3004 67 14.4375V1.5625C67 0.699555 66.3004 0 65.4375 0Z" fill="#E2241A"/>
<path fill-rule="evenodd" clip-rule="evenodd" d="M60.9043 12.732V14.2964C61.1587 14.4268 61.4594 14.5245 61.8067 14.5897C62.1539 14.6549 62.5199 14.6875 62.9047 14.6875C63.2796 14.6875 63.6358 14.6517 63.9733 14.5799C64.3108 14.5083 64.6067 14.3901 64.861 14.2255C65.1153 14.0609 65.3166 13.8458 65.465 13.5802C65.6133 13.3146 65.6875 12.9862 65.6875 12.5951C65.6875 12.3116 65.6451 12.0631 65.5603 11.8496C65.4756 11.6361 65.3533 11.4463 65.1935 11.2801C65.0338 11.1138 64.8422 10.9647 64.6189 10.8327C64.3955 10.7007 64.1437 10.5761 63.8632 10.4587C63.6578 10.374 63.4736 10.2917 63.3106 10.2119C63.1476 10.132 63.009 10.0505 62.8949 9.96744C62.7807 9.88431 62.6927 9.79631 62.6308 9.70344C62.5688 9.61053 62.5378 9.50544 62.5378 9.38809C62.5378 9.28056 62.5656 9.18359 62.621 9.09722C62.6764 9.01084 62.7547 8.93672 62.8558 8.87478C62.9568 8.81288 63.0807 8.76478 63.2274 8.73056C63.3742 8.69634 63.5372 8.67925 63.7165 8.67925C63.8469 8.67925 63.9847 8.68903 64.1298 8.70856C64.2749 8.72813 64.4208 8.75828 64.5675 8.799C64.7143 8.83975 64.8569 8.89109 64.9955 8.953C65.134 9.01494 65.262 9.08663 65.3794 9.16813V7.70638C65.1414 7.61513 64.8813 7.5475 64.5993 7.5035C64.3173 7.4595 63.9937 7.4375 63.6285 7.4375C63.2568 7.4375 62.9047 7.47744 62.5721 7.55728C62.2395 7.63712 61.9469 7.76178 61.6942 7.93125C61.4415 8.10075 61.2418 8.31666 61.0951 8.57903C60.9484 8.84137 60.875 9.15506 60.875 9.52009C60.875 9.98616 61.0095 10.3838 61.2785 10.713C61.5475 11.0421 61.9558 11.3208 62.5036 11.5489C62.7188 11.6369 62.9193 11.7233 63.1052 11.808C63.291 11.8928 63.4516 11.9808 63.5869 12.072C63.7222 12.1633 63.829 12.2627 63.9073 12.3702C63.9855 12.4778 64.0247 12.6 64.0247 12.7369C64.0247 12.8379 64.0002 12.9316 63.9513 13.018C63.9024 13.1044 63.8282 13.1793 63.7288 13.2429C63.6293 13.3064 63.5054 13.3561 63.3571 13.392C63.2087 13.4278 63.0351 13.4458 62.8362 13.4458C62.4971 13.4458 62.1613 13.3863 61.8287 13.2673C61.4961 13.1484 61.188 12.9699 60.9043 12.732ZM58.2744 8.87756H60.2812V7.59375H54.6875V8.87756H56.6846V14.5938H58.2744V8.87756Z" fill="white"/>
</svg>